<svg xmlns="http://www.w3.org/2000/svg" viewBox="0 0 65.92 56.99"><defs><style>.cls-1{fill:#bdbdbd;}</style></defs><g id="Layer_2" data-name="Layer 2"><g id="Layer_1-2" data-name="Layer 1"><path class="cls-1" d="M25.92,7.38C26,5.19,26,3,26.08.81a.76.76,0,0,1,.74-.73L36,0a.75.75,0,0,1,.76.73c0,2.29.11,4.57.16,6.86a.75.75,0,0,0,.74.73l7.52.08a.74.74,0,0,1,.74.76q-.07,4.68-.17,9.36a.75.75,0,0,1-.75.74l-7.51-.08a.74.74,0,0,0-.75.74v7.71a.75.75,0,0,1-.73.75l-9.26.16a.74.74,0,0,1-.76-.75c0-2.53,0-5.05.07-7.58a.75.75,0,0,0-.73-.76l-7.72-.08a.74.74,0,0,1-.73-.74l-.09-9.85A.76.76,0,0,1,17.56,8l7.61.08A.74.74,0,0,0,25.92,7.38Z"/><path class="cls-1" d="M.06,44.23,0,55.71a.9.9,0,0,0,.88.9L45.29,57a.9.9,0,0,0,.53-.17L64.3,43.49c2.1-1.86,2-3.64.71-5.7s-4.53-2.27-8,.52L43.92,46.82H30.5a.84.84,0,0,1-.55-.19,2.19,2.19,0,0,1-.74-2,2.27,2.27,0,0,1,1-1.49.9.9,0,0,1,.48-.14h9.48a3.59,3.59,0,1,0-.52-7.11l-18.73-.06a1,1,0,0,0-.24,0c-5.25,1.39-7.37,2.63-8.29,3.56l-1.31,1.3c-.91.91-1.68,1.65-2.23,2.18a.87.87,0,0,1-.59.24l-7.33.17A.88.88,0,0,0,.06,44.23Z"/></g></g></svg>