<svg width="74" height="48" viewBox="0 0 74 48" fill="none" xmlns="http://www.w3.org/2000/svg">
<path fill-rule="evenodd" clip-rule="evenodd" d="M6.10085 47.6707H67.8284C70.824 47.6707 73.275 45.2198 73.275 42.2242V22.2535H0.654297V42.2242C0.654297 45.2198 3.10525 47.6707 6.10085 47.6707ZM0.654297 11.3604V5.91384C0.654297 2.91823 3.10525 0.467285 6.10085 0.467285H67.8284C70.824 0.467285 73.275 2.91823 73.275 5.91384V11.3604H0.654297ZM62.8357 32.6925H33.7874C33.0354 32.6925 32.4258 32.083 32.4258 31.3309C32.4258 30.5787 33.0354 29.9692 33.7874 29.9692H62.8357C63.5879 29.9692 64.1973 30.5787 64.1973 31.3309C64.1973 32.083 63.5879 32.6925 62.8357 32.6925ZM33.7874 38.1391H59.2047C59.9568 38.1391 60.5663 37.5296 60.5663 36.7774C60.5663 36.0253 59.9568 35.4158 59.2047 35.4158H33.7874C33.0354 35.4158 32.4258 36.0253 32.4258 36.7774C32.4258 37.5296 33.0354 38.1391 33.7874 38.1391Z" fill="white"/>
</svg>
