<?xml version="1.0" encoding="utf-8"?>
<!-- Generator: Adobe Illustrator 26.0.0, SVG Export Plug-In . SVG Version: 6.00 Build 0)  -->
<svg version="1.1" id="Layer_1" xmlns="http://www.w3.org/2000/svg" xmlns:xlink="http://www.w3.org/1999/xlink" x="0px" y="0px"
	 viewBox="0 0 60.3 39.8" style="enable-background:new 0 0 60.3 39.8;" xml:space="preserve">
<g>
	<path d="M58.8,5.3v2.1H1.5V5.3c0-2.1,1.7-3.8,3.8-3.8H55C57.1,1.5,58.8,3.2,58.8,5.3z"/>
	<path d="M1.5,16.2v18.3c0,2.1,1.7,3.8,3.8,3.8H55c2.1,0,3.9-1.7,3.9-3.8V16.2H1.5z M7.4,32.1c-2.7-1.7-3.6-5.2-1.9-8
		c1.7-2.7,5.2-3.6,8-1.9c-1.7,1-2.8,2.9-2.8,4.9s1,3.9,2.8,4.9C11.7,33.3,9.3,33.3,7.4,32.1z M16.9,32.6c-3,0-5.5-2.4-5.5-5.5
		s2.5-5.5,5.5-5.5c3,0,5.5,2.5,5.5,5.5S19.9,32.6,16.9,32.6z M34.3,27.3c0,0.6-0.5,1.1-1.1,1.1h-6.6c-0.6,0-1.1-0.5-1.1-1.1v-0.5
		c0-0.6,0.5-1.1,1.1-1.1h6.6c0.6,0,1.1,0.5,1.1,1.1V27.3z M44.8,27.3c0,0.6-0.5,1.1-1.1,1.1H37c-0.6,0-1.1-0.5-1.1-1.1v-0.5
		c0-0.6,0.5-1.1,1.1-1.1h6.6c0.6,0,1.1,0.5,1.1,1.1V27.3z M55.2,27.3c0,0.6-0.5,1.1-1.1,1.1h-6.6c-0.6,0-1.1-0.5-1.1-1.1v-0.5
		c0-0.6,0.5-1.1,1.1-1.1h6.6c0.6,0,1.1,0.5,1.1,1.1V27.3z"/>
</g>
</svg>
